 <svg viewBox="0 0 600 300" xmlns="http://www.w3.org/2000/svg">
  <!-- Background landscape (fixed) -->
  <defs>
    <linearGradient id="skyGradient" x1="0%" y1="0%" x2="0%" y2="100%">
      <stop offset="0%" style="stop-color:#87CEEB;stop-opacity:1" />
      <stop offset="70%" style="stop-color:#E0F7FA;stop-opacity:1" />
    </linearGradient>
  </defs>
  
  <!-- Static landscape background -->
  <rect x="0" y="0" width="600" height="300" fill="url(#skyGradient)" />
  
  <!-- Mountains in background -->
  <path d="M0,200 L100,120 L200,170 L300,100 L400,150 L500,90 L600,180 L600,300 L0,300 Z" fill="#6a7f7a" />
  
  <!-- Hills in foreground -->
  <path d="M0,220 L80,200 L150,210 L250,190 L350,220 L450,200 L550,210 L600,220 L600,300 L0,300 Z" fill="#3e5f40" />
  
  <!-- Forest line -->
  <path d="M0,230 L600,230 L600,300 L0,300 Z" fill="#2d4030" />
  
  <!-- Main group with unified slower rotation and faster random movement -->
  <g transform="translate(300, 150) scale(0.55)" stroke="#111" fill="none">
    <!-- Rotation animation -->
    <animateTransform
      attributeName="transform"
      attributeType="XML"
      type="rotate"
      from="0 0 0"
      to="360 0 0"
      dur="50s"
      repeatCount="indefinite"
      additive="sum" />
    
    <!-- Random movement animation -->
    <animateTransform
      attributeName="transform"
      attributeType="XML"
      type="translate"
      from="0 -250"
      to="500 500" 
      dur="50s" 
      repeatCount="indefinite"
      keyTimes="0; 1"
      keySplines="0.25 0.1 0.25 1"
      additive="sum" />
    
    <!-- Diamond/prism body -->
    <path d="M -80,-20 L 40,-40 L 160,-20 L 40,0 Z" stroke-width="1" />
    
    <!-- Triangle/prism tail -->
    <path d="M -80,-20 L -160,-40 L -160,0 Z" stroke-width="1" />
    
    <!-- Prismatic structure hints - vertical lines -->
    <line x1="40" y1="-40" x2="40" y2="-60" stroke-width="0.5" />
    <line x1="-80" y1="-20" x2="-80" y2="-40" stroke-width="0.5" />
    <line x1="160" y1="-20" x2="160" y2="-40" stroke-width="0.5" />
    <line x1="-160" y1="-40" x2="-160" y2="-60" stroke-width="0.5" />
    
    <!-- Small yarn-like clump at intersection -->
    <g transform="translate(-80, -20)">
      <!-- Squiggly yarn-like lines -->
      <path d="M -2,-2 C -0.5,-3 0.5,-1 2,-2 C 3,-3 1,0 -1,-1" stroke-width="0.6" />
      <path d="M -3,0 C -1,-2 0,2 2,0 C 4,-2 2,3 0,1" stroke-width="0.6" />
      <path d="M -1,2 C 0,0 2,4 3,2 C 2,0 0,5 -1,3" stroke-width="0.6" />
      <path d="M -4,-1 C -2,1 -1,-3 0,-1 C 1,1 2,-3 3,-1" stroke-width="0.6" />
      <path d="M -3,1 C -1,-1 0,3 1,1 C 2,-1 3,3 4,1" stroke-width="0.6" />
    </g>
    
    <!-- Connecting diamond body -->
    <line x1="-60" y1="-25" x2="40" y2="-40" stroke-width="0.5" />
    <line x1="-40" y1="-30" x2="40" y2="-40" stroke-width="0.5" />
    <line x1="-20" y1="-35" x2="40" y2="-40" stroke-width="0.5" />
    <line x1="0" y1="-37" x2="40" y2="-40" stroke-width="0.5" />
    <line x1="20" y1="-39" x2="40" y2="-40" stroke-width="0.5" />
    
    <line x1="-60" y1="-15" x2="40" y2="0" stroke-width="0.5" />
    <line x1="-40" y1="-10" x2="40" y2="0" stroke-width="0.5" />
    <line x1="-20" y1="-5" x2="40" y2="0" stroke-width="0.5" />
    <line x1="0" y1="-3" x2="40" y2="0" stroke-width="0.5" />
    <line x1="20" y1="-1" x2="40" y2="0" stroke-width="0.5" />
    
    <line x1="60" y1="-37" x2="40" y2="-40" stroke-width="0.5" />
    <line x1="80" y1="-34" x2="40" y2="-40" stroke-width="0.5" />
    <line x1="100" y1="-30" x2="40" y2="-40" stroke-width="0.5" />
    <line x1="120" y1="-25" x2="40" y2="-40" stroke-width="0.5" />
    
    <line x1="60" y1="-3" x2="40" y2="0" stroke-width="0.5" />
    <line x1="80" y1="-6" x2="40" y2="0" stroke-width="0.5" />
    <line x1="100" y1="-10" x2="40" y2="0" stroke-width="0.5" />
    <line x1="120" y1="-15" x2="40" y2="0" stroke-width="0.5" />
    
    <!-- Connecting triangle tail -->
    <line x1="-100" y1="-25" x2="-160" y2="-40" stroke-width="0.5" />
    <line x1="-120" y1="-30" x2="-160" y2="-40" stroke-width="0.5" />
    <line x1="-140" y1="-35" x2="-160" y2="-40" stroke-width="0.5" />
    <line x1="-160" y1="-40" x2="-160" y2="-20" stroke-width="0.5" />
    
    <line x1="-100" y1="-15" x2="-160" y2="0" stroke-width="0.5" />
    <line x1="-120" y1="-10" x2="-160" y2="0" stroke-width="0.5" />
    <line x1="-140" y1="-5" x2="-160" y2="0" stroke-width="0.5" />
    <line x1="-160" y1="-20" x2="-160" y2="0" stroke-width="0.5" />
    
    <line x1="-160" y1="-30" x2="-160" y2="-10" stroke-width="0.5" />
    
    <!-- Crossing lines -->
    <line x1="-120" y1="-30" x2="-40" y2="-10" stroke-width="0.4" />
    <line x1="-120" y1="-10" x2="-40" y2="-30" stroke-width="0.4" />
    
    <line x1="-40" y1="-30" x2="40" y2="-10" stroke-width="0.4" />
    <line x1="-40" y1="-10" x2="40" y2="-30" stroke-width="0.4" />
    
    <line x1="0" y1="-30" x2="40" y2="-10" stroke-width="0.4" />
    <line x1="0" y1="-10" x2="40" y2="-30" stroke-width="0.4" />
    
    <!-- Extra fine lines -->
    <line x1="-140" y1="-30" x2="-100" y2="-10" stroke-width="0.3" />
    <line x1="-140" y1="-10" x2="-100" y2="-30" stroke-width="0.3" />
    
    <line x1="-60" y1="-35" x2="-20" y2="-5" stroke-width="0.3" />
    <line x1="-60" y1="-5" x2="-20" y2="-35" stroke-width="0.3" />
    
    <line x1="0" y1="-35" x2="80" y2="-5" stroke-width="0.3" />
    <line x1="0" y1="-5" x2="80" y2="-35" stroke-width="0.3" />
    
    <line x1="100" y1="-35" x2="160" y2="-5" stroke-width="0.3" />
    <line x1="100" y1="-5" x2="160" y2="-35" stroke-width="0.3" />
  </g>
</svg>

