<svg viewBox="0 0 600 300" xmlns="http://www.w3.org/2000/svg">
  <!-- Background - full blue sky with no white -->
  <defs>
    <linearGradient id="skyGradient" x1="0%" y1="0%" x2="0%" y2="100%">
      <stop offset="0%" style="stop-color:#87CEEB;stop-opacity:1" />
      <stop offset="100%" style="stop-color:#B0E2FF;stop-opacity:1" />
    </linearGradient>
  </defs>
  
  <!-- Full blue sky background covering entire canvas -->
  <rect x="0" y="0" width="600" height="300" fill="url(#skyGradient)" />
  
  <!-- Mountains in background -->
  <path d="M0,200 L100,120 L200,170 L300,100 L400,150 L500,90 L600,180 L600,300 L0,300 Z" fill="#6a7f7a" />
  
  <!-- Hills in foreground -->
  <path d="M0,220 L80,200 L150,210 L250,190 L350,220 L450,200 L550,210 L600,220 L600,300 L0,300 Z" fill="#3e5f40" />
  
  <!-- Forest line -->
  <path d="M0,230 L600,230 L600,300 L0,300 Z" fill="#2d4030" />
  
  <!-- Main group with unified slower rotation and faster random movement - now 40% smaller (scale 0.33 instead of 0.55) -->
  <g transform="translate(300, 150) scale(0.33)" stroke="#111" fill="none">
    <!-- Rotation animation -->
    <animateTransform
      attributeName="transform"
      attributeType="XML"
      type="rotate"
      from="0 0 0"
      to="360 0 0"
      dur="50s"
      repeatCount="indefinite"
      additive="sum" />
    
    <!-- Random movement animation -->
    <animateTransform
      attributeName="transform"
      attributeType="XML"
      type="translate"
      from="-70 -230"
      to="430 520" 
      dur="50s" 
      repeatCount="indefinite"
      keyTimes="0; 1"
      keySplines="0.25 0.1 0.25 1"
      additive="sum" />
    
    <!-- Apply skew transformation to bend the entire structure -->
    <g transform="skewX(23) rotate(17) translate(-20, 15)">
      <!-- Diamond/prism body - made skinnier by reducing width -->
      <path d="M -130,-5 L 10,-75 L 140,5 L 15,40 Z" stroke-width="1" />
      
      <!-- Triangle/prism tail - heavily distorted -->
      <path d="M -130,-5 L -195,-15 L -125,35 Z" stroke-width="1" />
      
      <!-- Prismatic structure hints - vertical lines -->
      <line x1="10" y1="-75" x2="0" y2="-100" stroke-width="0.5" />
      <line x1="-130" y1="-5" x2="-140" y2="-35" stroke-width="0.5" />
      <line x1="140" y1="5" x2="155" y2="-15" stroke-width="0.5" />  <!-- Updated from 210 to 140 -->
      <line x1="-195" y1="-15" x2="-210" y2="-45" stroke-width="0.5" />
      
      <!-- Enlarged central yarn-like clump at intersection -->
      <g transform="translate(-130, -5) rotate(27) scale(1.8)">
        <!-- Squiggly yarn-like lines -->
        <path d="M -2,-2 C -0.5,-3 0.5,-1 2,-2 C 3,-3 1,0 -1,-1" stroke-width="0.6" />
        <path d="M -3,0 C -1,-2 0,2 2,0 C 4,-2 2,3 0,1" stroke-width="0.6" />
        <path d="M -1,2 C 0,0 2,4 3,2 C 2,0 0,5 -1,3" stroke-width="0.6" />
        <path d="M -4,-1 C -2,1 -1,-3 0,-1 C 1,1 2,-3 3,-1" stroke-width="0.6" />
        <path d="M -3,1 C -1,-1 0,3 1,1 C 2,-1 3,3 4,1" stroke-width="0.6" />
        <path d="M -5,0 C -3,-2 -1,2 1,0 C 3,-2 4,2 5,0" stroke-width="0.6" />
        <path d="M -6,-1 C -4,1 -2,-3 0,-1 C 2,1 4,-3 6,-1" stroke-width="0.6" />
        <path d="M -4,2 C -2,0 0,4 2,2 C 4,0 6,4 8,2" stroke-width="0.6" />
      </g>
      
      <!-- Additional yarn-like clump -->
      <g transform="translate(10, -75) rotate(-22) scale(0.9)">
        <path d="M -2,-2 C -0.5,-3 0.5,-1 2,-2 C 3,-3 1,0 -1,-1" stroke-width="0.6" />
        <path d="M -3,0 C -1,-2 0,2 2,0 C 4,-2 2,3 0,1" stroke-width="0.6" />
        <path d="M -1,2 C 0,0 2,4 3,2 C 2,0 0,5 -1,3" stroke-width="0.6" />
      </g>
      
      <!-- Third yarn-like clump - updated position -->
      <g transform="translate(140, 5) rotate(38) scale(0.7)">  <!-- Updated from 210 to 140 -->
        <path d="M -2,-2 C -0.5,-3 0.5,-1 2,-2 C 3,-3 1,0 -1,-1" stroke-width="0.6" />
        <path d="M -3,0 C -1,-2 0,2 2,0 C 4,-2 2,3 0,1" stroke-width="0.6" />
        <path d="M -4,-1 C -2,1 -1,-3 0,-1 C 1,1 2,-3 3,-1" stroke-width="0.6" />
      </g>
      
      <!-- Fourth small yarn-like clump -->
      <g transform="translate(15, 40) rotate(-15) scale(0.5)">
        <path d="M -2,-2 C -0.5,-3 0.5,-1 2,-2 C 3,-3 1,0 -1,-1" stroke-width="0.6" />
        <path d="M -3,0 C -1,-2 0,2 2,0 C 4,-2 2,3 0,1" stroke-width="0.6" />
      </g>
      
      <!-- Connecting diamond body - highly asymmetric -->
      <line x1="-90" y1="-30" x2="10" y2="-75" stroke-width="0.5" />
      <line x1="-50" y1="-50" x2="10" y2="-75" stroke-width="0.5" />
      <line x1="0" y1="-65" x2="10" y2="-75" stroke-width="0.5" />
      
      <line x1="-90" y1="10" x2="15" y2="40" stroke-width="0.5" />
      <line x1="-50" y1="20" x2="15" y2="40" stroke-width="0.5" />
      <line x1="-10" y1="30" x2="15" y2="40" stroke-width="0.5" />
      
      <line x1="60" y1="-65" x2="10" y2="-75" stroke-width="0.5" />
      <line x1="90" y1="-45" x2="10" y2="-75" stroke-width="0.5" />  <!-- Updated from 110 to 90 -->
      <line x1="120" y1="-20" x2="10" y2="-75" stroke-width="0.5" />  <!-- Updated from 160 to 120 -->
      
      <line x1="80" y1="30" x2="15" y2="40" stroke-width="0.5" />
      <line x1="100" y1="25" x2="15" y2="40" stroke-width="0.5" />  <!-- Updated from 130 to 100 -->
      <line x1="120" y1="15" x2="15" y2="40" stroke-width="0.5" />  <!-- Updated from 180 to 120 -->
      
      <!-- Connecting triangle tail - asymmetric -->
      <line x1="-145" y1="-8" x2="-195" y2="-15" stroke-width="0.5" />
      <line x1="-160" y1="-10" x2="-195" y2="-15" stroke-width="0.5" />
      <line x1="-180" y1="-12" x2="-195" y2="-15" stroke-width="0.5" />
      <line x1="-195" y1="-15" x2="-125" y2="15" stroke-width="0.5" />
      
      <line x1="-145" y1="10" x2="-125" y2="35" stroke-width="0.5" />
      <line x1="-135" y1="20" x2="-125" y2="35" stroke-width="0.5" />
      <line x1="-125" y1="15" x2="-125" y2="35" stroke-width="0.5" />
      
      <line x1="-195" y1="-5" x2="-125" y2="25" stroke-width="0.5" />
      
      <!-- New angled connecting lines - INTERIOR to the diamond -->
      <!-- Diamond connecting lines -->
      <polyline points="-130,-5 -60,-45 10,-75" stroke-width="0.3" stroke-dasharray="2,2" />
      <polyline points="-130,-5 40,-10 140,5" stroke-width="0.3" stroke-dasharray="3,1" />  <!-- Updated from 210 to 140 -->
      <polyline points="-130,-5 -60,18 15,40" stroke-width="0.3" stroke-dasharray="1,2" />
      <polyline points="10,-75 75,-35 140,5" stroke-width="0.3" stroke-dasharray="2,1" />  <!-- Updated from 110,-35 210,5 to 75,-35 140,5 -->
      <polyline points="10,-75 20,-15 15,40" stroke-width="0.3" stroke-dasharray="1,1" />
      <polyline points="140,5 75,25 15,40" stroke-width="0.3" stroke-dasharray="2,2" />  <!-- Updated from 210,5 110,25 to 140,5 75,25 -->
      
      <!-- Triangle connecting lines - interior -->
      <polyline points="-130,-5 -165,-2 -195,-15" stroke-width="0.2" />
      <polyline points="-130,-5 -130,18 -125,35" stroke-width="0.2" />
      <polyline points="-195,-15 -160,10 -125,35" stroke-width="0.2" />
      
      <!-- Additional interior connecting lines -->
      <polyline points="-60,-35 20,-50 80,-30" stroke-width="0.25" />  <!-- Updated from 100 to 80 -->
      <polyline points="-40,15 40,-5 100,20" stroke-width="0.25" />  <!-- Updated from 60,-5 140,20 to 40,-5 100,20 -->
      <polyline points="-90,-20 10,-35 80,-15" stroke-width="0.25" />  <!-- Updated from 110 to 80 -->
      <polyline points="-70,25 30,15 90,20" stroke-width="0.25" />  <!-- Updated from 120 to 90 -->
      <polyline points="-160,-8 -145,-3 -130,2" stroke-width="0.25" />
      
      <!-- Additional crossing lines for asymmetry - making sure no duplicated attributes -->
      <line x1="-90" y1="-25" x2="20" y2="20" stroke-width="0.3" />
      <line x1="-70" y1="20" x2="40" y2="-30" stroke-width="0.3" />
      
      <line x1="0" y1="-55" x2="90" y2="20" stroke-width="0.3" />  <!-- Updated from 120 to 90 -->
      <line x1="30" y1="20" x2="100" y2="-30" stroke-width="0.3" />  <!-- Updated from 140 to 100 -->
      
      <line x1="-180" y1="-10" x2="-130" y2="15" stroke-width="0.3" />
      <line x1="-170" y1="10" x2="-140" y2="-10" stroke-width="0.3" />
      
      <!-- Additional random interior lines for more asymmetry -->
      <line x1="-100" y1="-15" x2="50" y2="-40" stroke-width="0.2" />
      <line x1="-50" y1="0" x2="80" y2="10" stroke-width="0.2" />  <!-- Updated from 100 to 80 -->
      <line x1="30" y1="-60" x2="100" y2="-10" stroke-width="0.2" />  <!-- Updated from 150 to 100 -->
      <line x1="50" y1="0" x2="120" y2="10" stroke-width="0.2" stroke-dasharray="1,1" />  <!-- Updated from 170 to 120 -->
      <line x1="-20" y1="-40" x2="60" y2="30" stroke-width="0.2" stroke-dasharray="2,1" />  <!-- Updated from 70 to 60 -->
      <line x1="-175" y1="5" x2="-140" y2="25" stroke-width="0.2" stroke-dasharray="1,2" />
    </g>
  </g>
</svg>
